<svg width="143" height="60" viewBox="0 0 143 60" fill="none" xmlns="http://www.w3.org/2000/svg">
<g clip-path="url(#clip0_919_5017)">
<path d="M143 29.9669C143 46.8357 129.94 60 113.516 60C105.403 60 98.2136 56.6262 92.739 51.2679C90.4304 48.8864 88.5176 48.4895 86.4728 48.7541C84.2302 49.0849 82.5153 50.6064 80.9982 52.8555C77.5683 57.6185 73.4129 60 68.4659 60C58.4401 60 50.9867 47.6295 50.9867 29.9008C50.9207 13.1643 57.9784 -1.85308e-05 68.334 -1.85308e-05C73.3469 -1.85308e-05 77.4364 2.31531 80.9322 7.21057C82.7131 9.72435 84.2962 10.9812 86.4069 11.2458C88.7155 11.4443 90.4964 11.0474 92.673 8.86437C98.0157 3.37374 105.337 -1.85308e-05 113.45 -1.85308e-05C113.45 -1.85308e-05 120.31 -0.264627 127.566 3.5722C135.415 7.80593 142.934 17.1334 142.934 29.9669H143Z" fill="#0E217C"/>
<path d="M19.2601 0.198242C30.0115 0.198242 36.7394 13.7594 36.7394 29.9667C36.7394 46.174 30.0115 59.7352 19.2601 59.7352C8.57472 59.8013 0 46.2401 0 29.9667C0 13.6271 8.57472 0.198242 19.2601 0.198242Z" fill="#0E217C"/>
</g>
<defs>
<clipPath id="clip0_919_5017">
<rect width="143" height="60" fill="white"/>
</clipPath>
</defs>
</svg>
